<svg fill="currentColor" viewBox="0 0 106.71 24.871" xmlns="http://www.w3.org/2000/svg"><path d="m4.6655 12.065L9.525 2.646h2.5929l-4.789 9.3133 5.0535 10.001H9.6572l-4.9918-9.8955m-2.2842.97906v8.9164H0v-19.315h2.3812v8.3079"/><path d="m21.378 2.3814c-1.7815.0-3.2014.51994-4.2597 1.5606-1.0407 1.0231-1.5611 2.3993-1.5611 4.1279v8.4667c0 1.7286.52045 3.1131 1.5611 4.1538 1.0583 1.0231 2.4782 1.5348 4.2597 1.5348 1.1818.0 2.2048-.22972 3.0691-.68833.88194-.47625 1.5608-1.1377 2.0371-1.9844.47625-.8643.71469-1.8693.71469-3.0158v-8.4667c0-1.7286-.52917-3.1049-1.5875-4.1279-1.0407-1.0407-2.4518-1.5606-4.2333-1.5606zm0 2.0371c1.0583.0 1.9049.34406 2.5399 1.032.65264.67028.97875 1.5435.97875 2.6195v8.4667c0 1.076-.32611 1.9579-.97875 2.6458-.635.67028-1.4816 1.0051-2.5399 1.0051s-1.9141-.33483-2.5668-1.0051c-.635-.68792-.9524-1.5699-.9524-2.6458V8.07c0-1.076.3174-1.9492.9524-2.6195.65264-.68792 1.5084-1.032 2.5668-1.032z"/><path d="m35.613 21.96-4.9742-19.315h2.4342l3.3073 13.15q.34396 1.3758.55562 2.54.23812 1.1642.34396 1.7727.10583-.60854.34396-1.7727.26458-1.1906.60854-2.5664l3.175-13.123h2.4606l-5.0006 19.315z"/><path d="m53.128 22.225q-2.6987.0-4.1275-1.4817-1.4287-1.5081-1.4287-4.0746V2.6457h2.3812v14.023q0 1.5875.76729 2.5135.79375.92604 2.4077.92604 1.5875.0 2.3812-.92604t.79375-2.5135V2.6457h2.3812v14.023q0 2.5929-1.4287 4.0746-1.4023 1.4817-4.1275 1.4817z"/><path d="m64.505 21.96V2.645h2.3812V19.79h8.7312v2.1696z"/><path d="m78.264 21.96 5.0271-19.315h3.2014l5.0006 19.315h-2.4077L85.831 8.863q-.4498-1.8785-.71438-3.1221l-.23812-1.2435-.26459 1.2435q-.23812 1.2171-.68791 3.0956l-3.2279 13.123z"/><path d="m94.8 24.871L104.1927.0h2.5135l-9.3927 24.871z"/></svg>