<svg xmlns="http://www.w3.org/2000/svg" width="504" height="96" viewBox="0 0 504 96"><g><path d="M0 0v96h16V0z"/><path d="M44 0 28 32v32l16 32h12V80L40 48l16-32V0z"/></g><path d="M84.6875.0 72 12.6875v70.625L84.6875 96h30.625L128 83.3125v-70.625L115.3125.0zm6.625 16h17.375L112 19.3125v57.375L108.6875 80h-17.375L88 76.6875v-57.375z"/><path d="M144 0v16l15 80h26l15-80V0h-16v16l-12 64-12-64V0z"/><path d="M216 0v83.3125L228.6875 96h30.625L272 83.3125V0h-16v76.6875L252.6875 80h-17.375L232 76.6875V0z"/><path d="M288 0v96h56V80h-40V0z"/><path d="m375 0-15 80v16h16V80h24v16h16V80L401 0zm13 16 9 48h-18z"/><path d="M488 0v16l-40 64v16h16V80l40-64V0z"/></svg>