<svg xmlns="http://www.w3.org/2000/svg" fill="currentColor" viewBox="0 0 300 70"><path d="M13.12 33.96 26.78 7.48h7.29L20.6 33.66l14.21 28.12h-7.66zM6.7 36.7v25.07H0V7.48h6.7v23.35"/><path d="M60.1 6.73q-7.5.0-11.97 4.4-4.4 4.3-4.4 11.6v23.8q0 7.29 4.4 11.68 4.46 4.3 11.97 4.31 4.99.0 8.63-1.93 3.73-2.01 5.73-5.58 2-3.65 2-8.48v-23.8q0-7.3-4.45-11.6-4.4-4.4-11.9-4.4m0 5.73q4.47.0 7.14 2.9Q70 18.2 70 22.73v23.8q0 4.54-2.76 7.44-2.67 2.82-7.14 2.82t-7.21-2.82q-2.68-2.9-2.68-7.44v-23.8q0-4.54 2.68-7.37 2.75-2.9 7.21-2.9"/><path d="M100.12 61.78 86.14 7.48h6.84l9.3 36.97q.96 3.86 1.56 7.14.67 3.27.97 4.98.3-1.71.96-4.98.75-3.35 1.71-7.22l8.93-36.9h6.92l-14.06 54.31z"/><path d="M149.37 62.52q-7.59.0-11.6-4.16-4.02-4.24-4.02-11.46V7.48h6.7V46.9q0 4.46 2.15 7.07 2.23 2.6 6.77 2.6 4.46.0 6.7-2.6 2.23-2.6 2.23-7.07V7.48h6.7V46.9q0 7.3-4.03 11.46-3.94 4.16-11.6 4.16"/><path d="M181.35 61.78V7.48h6.7v48.2h24.54v6.1z"/><path d="m220.04 61.78 14.13-54.3h9l14.06 54.3h-6.77l-9.15-36.82q-1.26-5.29-2-8.78l-.67-3.5-.75 3.5q-.67 3.42-1.93 8.7l-9.08 36.9z"/><path d="M266.53 69.96 292.93.04H3e2l-26.4 69.92z"/></svg>